<svg xmlns="http://www.w3.org/2000/svg" xmlns:xlink="http://www.w3.org/1999/xlink" width="1080" zoomAndPan="magnify" viewBox="0 0 810 809.999993" height="1080" preserveAspectRatio="xMidYMid meet" version="1.0"><defs><clipPath id="c7d28a91ab"><path d="M 339 224.445312 L 570 224.445312 L 570 389 L 339 389 Z M 339 224.445312 " clip-rule="nonzero"/></clipPath><clipPath id="d07d56fd3f"><path d="M 355 396 L 585.195312 396 L 585.195312 585.195312 L 355 585.195312 Z M 355 396 " clip-rule="nonzero"/></clipPath><clipPath id="741837cfdb"><path d="M 224.445312 322 L 455 322 L 455 512 L 224.445312 512 Z M 224.445312 322 " clip-rule="nonzero"/></clipPath></defs><g clip-path="url(#c7d28a91ab)"><path fill="#ffffff" d="M 475.328125 388.582031 C 474.316406 388.59375 473.339844 388.417969 472.390625 388.066406 C 471.441406 387.710938 470.589844 387.199219 469.832031 386.53125 C 469.425781 386.171875 469.058594 385.777344 468.726562 385.34375 C 468.398438 384.914062 468.117188 384.453125 467.878906 383.964844 C 467.644531 383.476562 467.457031 382.96875 467.320312 382.441406 C 467.183594 381.917969 467.101562 381.382812 467.070312 380.84375 C 467.039062 380.300781 467.0625 379.761719 467.140625 379.222656 C 467.214844 378.6875 467.34375 378.160156 467.523438 377.648438 C 467.707031 377.136719 467.933594 376.648438 468.210938 376.183594 C 468.488281 375.714844 468.8125 375.28125 469.175781 374.878906 L 476.480469 366.671875 C 477.265625 365.800781 478.191406 365.128906 479.265625 364.65625 C 480.339844 364.183594 481.460938 363.953125 482.632812 363.960938 L 544.511719 363.960938 C 545.050781 363.960938 545.585938 363.910156 546.113281 363.804688 C 546.644531 363.699219 547.15625 363.542969 547.652344 363.339844 C 548.152344 363.132812 548.625 362.878906 549.074219 362.578125 C 549.519531 362.28125 549.9375 361.941406 550.316406 361.558594 C 550.699219 361.179688 551.039062 360.761719 551.335938 360.316406 C 551.636719 359.867188 551.890625 359.394531 552.097656 358.898438 C 552.300781 358.398438 552.457031 357.886719 552.5625 357.355469 C 552.667969 356.828125 552.71875 356.292969 552.71875 355.757812 L 552.71875 249.066406 C 552.71875 248.527344 552.667969 247.996094 552.5625 247.464844 C 552.457031 246.9375 552.300781 246.425781 552.097656 245.925781 C 551.890625 245.429688 551.636719 244.957031 551.335938 244.507812 C 551.039062 244.058594 550.699219 243.644531 550.316406 243.265625 C 549.9375 242.882812 549.519531 242.542969 549.074219 242.242188 C 548.625 241.945312 548.152344 241.691406 547.652344 241.484375 C 547.15625 241.277344 546.644531 241.121094 546.113281 241.019531 C 545.585938 240.914062 545.050781 240.859375 544.511719 240.859375 L 363.960938 240.859375 C 363.425781 240.859375 362.890625 240.914062 362.363281 241.019531 C 361.832031 241.121094 361.320312 241.277344 360.820312 241.484375 C 360.324219 241.691406 359.851562 241.945312 359.402344 242.242188 C 358.957031 242.542969 358.539062 242.882812 358.160156 243.265625 C 357.777344 243.644531 357.4375 244.058594 357.140625 244.507812 C 356.839844 244.957031 356.585938 245.429688 356.378906 245.925781 C 356.175781 246.425781 356.019531 246.9375 355.914062 247.464844 C 355.808594 247.996094 355.757812 248.527344 355.757812 249.066406 L 355.757812 306.515625 C 355.757812 307.054688 355.703125 307.585938 355.597656 308.117188 C 355.492188 308.644531 355.335938 309.15625 355.132812 309.65625 C 354.925781 310.152344 354.671875 310.625 354.371094 311.074219 C 354.074219 311.523438 353.734375 311.9375 353.351562 312.316406 C 352.972656 312.699219 352.558594 313.039062 352.109375 313.339844 C 351.660156 313.636719 351.1875 313.890625 350.691406 314.097656 C 350.191406 314.304688 349.679688 314.457031 349.148438 314.5625 C 348.621094 314.667969 348.089844 314.722656 347.550781 314.722656 C 347.011719 314.722656 346.476562 314.667969 345.949219 314.5625 C 345.417969 314.457031 344.90625 314.304688 344.410156 314.097656 C 343.910156 313.890625 343.4375 313.636719 342.988281 313.339844 C 342.542969 313.039062 342.128906 312.699219 341.746094 312.316406 C 341.363281 311.9375 341.023438 311.523438 340.726562 311.074219 C 340.425781 310.625 340.171875 310.152344 339.96875 309.65625 C 339.761719 309.15625 339.605469 308.644531 339.5 308.117188 C 339.394531 307.585938 339.34375 307.054688 339.34375 306.515625 L 339.34375 249.066406 C 339.34375 248.261719 339.382812 247.457031 339.460938 246.652344 C 339.539062 245.851562 339.65625 245.054688 339.816406 244.261719 C 339.972656 243.472656 340.167969 242.691406 340.402344 241.921875 C 340.636719 241.148438 340.90625 240.390625 341.214844 239.644531 C 341.523438 238.898438 341.871094 238.171875 342.25 237.460938 C 342.628906 236.75 343.042969 236.058594 343.492188 235.386719 C 343.941406 234.71875 344.417969 234.070312 344.929688 233.449219 C 345.441406 232.824219 345.984375 232.226562 346.554688 231.65625 C 347.125 231.085938 347.71875 230.546875 348.34375 230.035156 C 348.96875 229.523438 349.613281 229.042969 350.285156 228.59375 C 350.953125 228.148438 351.644531 227.734375 352.355469 227.351562 C 353.066406 226.972656 353.796875 226.628906 354.539062 226.320312 C 355.285156 226.011719 356.042969 225.742188 356.816406 225.507812 C 357.585938 225.273438 358.367188 225.078125 359.160156 224.917969 C 359.949219 224.761719 360.746094 224.644531 361.550781 224.566406 C 362.351562 224.484375 363.15625 224.445312 363.960938 224.445312 L 544.511719 224.445312 C 545.320312 224.445312 546.125 224.484375 546.925781 224.566406 C 547.730469 224.644531 548.527344 224.761719 549.316406 224.917969 C 550.109375 225.078125 550.890625 225.273438 551.660156 225.507812 C 552.433594 225.742188 553.191406 226.011719 553.933594 226.320312 C 554.679688 226.628906 555.410156 226.972656 556.121094 227.351562 C 556.832031 227.734375 557.523438 228.148438 558.191406 228.59375 C 558.863281 229.042969 559.507812 229.523438 560.132812 230.035156 C 560.757812 230.546875 561.351562 231.085938 561.921875 231.65625 C 562.492188 232.226562 563.035156 232.824219 563.546875 233.449219 C 564.058594 234.070312 564.535156 234.71875 564.984375 235.386719 C 565.433594 236.058594 565.847656 236.75 566.226562 237.460938 C 566.605469 238.171875 566.953125 238.898438 567.261719 239.644531 C 567.570312 240.390625 567.839844 241.148438 568.074219 241.921875 C 568.308594 242.691406 568.503906 243.472656 568.660156 244.261719 C 568.820312 245.054688 568.9375 245.851562 569.015625 246.652344 C 569.09375 247.457031 569.132812 248.261719 569.132812 249.066406 L 569.132812 355.757812 C 569.132812 356.5625 569.09375 357.367188 569.015625 358.167969 C 568.9375 358.972656 568.820312 359.769531 568.660156 360.558594 C 568.503906 361.351562 568.308594 362.132812 568.074219 362.902344 C 567.839844 363.675781 567.570312 364.433594 567.261719 365.179688 C 566.953125 365.921875 566.605469 366.652344 566.226562 367.363281 C 565.847656 368.074219 565.433594 368.765625 564.984375 369.433594 C 564.535156 370.105469 564.058594 370.75 563.546875 371.375 C 563.035156 372 562.492188 372.59375 561.921875 373.164062 C 561.351562 373.734375 560.757812 374.277344 560.132812 374.789062 C 559.507812 375.300781 558.863281 375.777344 558.191406 376.226562 C 557.523438 376.675781 556.832031 377.089844 556.121094 377.46875 C 555.410156 377.847656 554.679688 378.195312 553.933594 378.503906 C 553.191406 378.8125 552.433594 379.082031 551.660156 379.316406 C 550.890625 379.550781 550.109375 379.746094 549.316406 379.902344 C 548.527344 380.0625 547.730469 380.179688 546.925781 380.257812 C 546.125 380.335938 545.320312 380.375 544.511719 380.375 L 486.328125 380.375 L 481.402344 385.875 C 480.628906 386.734375 479.710938 387.398438 478.652344 387.871094 C 477.59375 388.34375 476.488281 388.582031 475.328125 388.582031 Z M 475.328125 388.582031 " fill-opacity="1" fill-rule="nonzero"/></g><g clip-path="url(#d07d56fd3f)"><path fill="#ffffff" d="M 469.75 585.546875 C 468.578125 585.558594 467.453125 585.324219 466.382812 584.851562 C 465.308594 584.382812 464.378906 583.710938 463.59375 582.839844 L 436.757812 552.71875 L 380.375 552.71875 C 379.570312 552.71875 378.765625 552.679688 377.964844 552.601562 C 377.160156 552.523438 376.363281 552.40625 375.574219 552.246094 C 374.78125 552.089844 374 551.894531 373.230469 551.660156 C 372.457031 551.425781 371.699219 551.15625 370.953125 550.847656 C 370.210938 550.539062 369.480469 550.195312 368.769531 549.8125 C 368.058594 549.433594 367.367188 549.019531 366.699219 548.570312 C 366.027344 548.125 365.378906 547.644531 364.757812 547.132812 C 364.132812 546.621094 363.539062 546.078125 362.96875 545.507812 C 362.398438 544.9375 361.855469 544.34375 361.34375 543.71875 C 360.832031 543.09375 360.351562 542.449219 359.90625 541.777344 C 359.457031 541.109375 359.042969 540.417969 358.664062 539.707031 C 358.28125 538.996094 357.9375 538.265625 357.628906 537.523438 C 357.320312 536.777344 357.050781 536.019531 356.816406 535.246094 C 356.582031 534.476562 356.386719 533.695312 356.230469 532.902344 C 356.070312 532.113281 355.953125 531.316406 355.875 530.511719 C 355.796875 529.710938 355.757812 528.90625 355.757812 528.101562 L 355.757812 421.410156 C 355.757812 420.605469 355.796875 419.800781 355.875 418.996094 C 355.953125 418.195312 356.070312 417.398438 356.230469 416.609375 C 356.386719 415.816406 356.582031 415.035156 356.816406 414.265625 C 357.050781 413.492188 357.320312 412.734375 357.628906 411.988281 C 357.9375 411.242188 358.28125 410.515625 358.664062 409.804688 C 359.042969 409.09375 359.457031 408.402344 359.90625 407.730469 C 360.351562 407.0625 360.832031 406.414062 361.34375 405.792969 C 361.855469 405.167969 362.398438 404.570312 362.96875 404 C 363.539062 403.429688 364.132812 402.890625 364.757812 402.378906 C 365.378906 401.867188 366.027344 401.386719 366.699219 400.941406 C 367.367188 400.492188 368.058594 400.078125 368.769531 399.699219 C 369.480469 399.316406 370.210938 398.972656 370.953125 398.664062 C 371.699219 398.355469 372.457031 398.085938 373.230469 397.851562 C 374 397.617188 374.78125 397.421875 375.574219 397.261719 C 376.363281 397.105469 377.160156 396.988281 377.964844 396.910156 C 378.765625 396.828125 379.570312 396.789062 380.375 396.789062 L 560.925781 396.789062 C 561.734375 396.789062 562.539062 396.828125 563.339844 396.910156 C 564.144531 396.988281 564.941406 397.105469 565.730469 397.261719 C 566.519531 397.421875 567.300781 397.617188 568.074219 397.851562 C 568.847656 398.085938 569.605469 398.355469 570.347656 398.664062 C 571.09375 398.972656 571.820312 399.316406 572.535156 399.699219 C 573.246094 400.078125 573.933594 400.492188 574.605469 400.941406 C 575.277344 401.386719 575.921875 401.867188 576.546875 402.378906 C 577.167969 402.890625 577.765625 403.429688 578.335938 404 C 578.90625 404.570312 579.449219 405.167969 579.960938 405.792969 C 580.472656 406.414062 580.949219 407.0625 581.398438 407.730469 C 581.847656 408.402344 582.261719 409.09375 582.640625 409.804688 C 583.019531 410.515625 583.363281 411.242188 583.671875 411.988281 C 583.980469 412.734375 584.253906 413.492188 584.488281 414.265625 C 584.722656 415.035156 584.917969 415.816406 585.074219 416.609375 C 585.230469 417.398438 585.351562 418.195312 585.429688 418.996094 C 585.507812 419.800781 585.546875 420.605469 585.546875 421.410156 L 585.546875 528.101562 C 585.546875 528.90625 585.507812 529.710938 585.429688 530.511719 C 585.351562 531.316406 585.230469 532.113281 585.074219 532.902344 C 584.917969 533.695312 584.722656 534.476562 584.488281 535.246094 C 584.253906 536.019531 583.980469 536.777344 583.671875 537.523438 C 583.363281 538.265625 583.019531 538.996094 582.640625 539.707031 C 582.261719 540.417969 581.847656 541.109375 581.398438 541.777344 C 580.949219 542.449219 580.472656 543.09375 579.960938 543.71875 C 579.449219 544.34375 578.90625 544.9375 578.335938 545.507812 C 577.765625 546.078125 577.167969 546.621094 576.546875 547.132812 C 575.921875 547.644531 575.277344 548.125 574.605469 548.570312 C 573.933594 549.019531 573.246094 549.433594 572.535156 549.8125 C 571.820312 550.195312 571.09375 550.539062 570.347656 550.847656 C 569.605469 551.15625 568.847656 551.425781 568.074219 551.660156 C 567.300781 551.894531 566.519531 552.089844 565.730469 552.246094 C 564.941406 552.40625 564.144531 552.523438 563.339844 552.601562 C 562.539062 552.679688 561.734375 552.71875 560.925781 552.71875 L 502.742188 552.71875 L 475.820312 582.839844 C 475.046875 583.699219 474.128906 584.363281 473.074219 584.835938 C 472.015625 585.308594 470.90625 585.546875 469.75 585.546875 Z M 380.375 413.203125 C 379.835938 413.203125 379.304688 413.257812 378.777344 413.363281 C 378.246094 413.464844 377.734375 413.621094 377.234375 413.828125 C 376.738281 414.035156 376.265625 414.289062 375.816406 414.585938 C 375.367188 414.886719 374.953125 415.226562 374.574219 415.609375 C 374.191406 415.988281 373.851562 416.402344 373.554688 416.851562 C 373.253906 417.300781 373 417.773438 372.792969 418.269531 C 372.589844 418.769531 372.433594 419.28125 372.328125 419.808594 C 372.222656 420.339844 372.167969 420.871094 372.167969 421.410156 L 372.167969 528.101562 C 372.167969 528.640625 372.222656 529.171875 372.328125 529.699219 C 372.433594 530.230469 372.589844 530.742188 372.792969 531.242188 C 373 531.738281 373.253906 532.210938 373.554688 532.660156 C 373.851562 533.109375 374.191406 533.523438 374.574219 533.902344 C 374.953125 534.285156 375.367188 534.625 375.816406 534.921875 C 376.265625 535.222656 376.738281 535.476562 377.234375 535.683594 C 377.734375 535.886719 378.246094 536.042969 378.777344 536.148438 C 379.304688 536.253906 379.835938 536.308594 380.375 536.308594 L 440.367188 536.308594 C 441.539062 536.296875 442.664062 536.53125 443.738281 537 C 444.808594 537.472656 445.738281 538.144531 446.523438 539.015625 L 469.75 565.03125 L 492.890625 539.015625 C 493.679688 538.144531 494.605469 537.472656 495.679688 537 C 496.753906 536.53125 497.875 536.296875 499.046875 536.308594 L 560.925781 536.308594 C 561.464844 536.308594 562 536.253906 562.527344 536.148438 C 563.058594 536.042969 563.570312 535.886719 564.066406 535.683594 C 564.566406 535.476562 565.039062 535.222656 565.488281 534.921875 C 565.933594 534.625 566.347656 534.285156 566.730469 533.902344 C 567.113281 533.523438 567.453125 533.109375 567.75 532.660156 C 568.050781 532.210938 568.304688 531.738281 568.507812 531.242188 C 568.714844 530.742188 568.871094 530.230469 568.976562 529.699219 C 569.082031 529.171875 569.132812 528.640625 569.132812 528.101562 L 569.132812 421.410156 C 569.132812 420.871094 569.082031 420.339844 568.976562 419.808594 C 568.871094 419.28125 568.714844 418.769531 568.507812 418.269531 C 568.304688 417.773438 568.050781 417.300781 567.75 416.851562 C 567.453125 416.402344 567.113281 415.988281 566.730469 415.609375 C 566.347656 415.226562 565.933594 414.886719 565.488281 414.585938 C 565.039062 414.289062 564.566406 414.035156 564.066406 413.828125 C 563.570312 413.621094 563.058594 413.464844 562.527344 413.363281 C 562 413.257812 561.464844 413.203125 560.925781 413.203125 Z M 380.375 413.203125 " fill-opacity="1" fill-rule="nonzero"/></g><path fill="#ffffff" d="M 470.652344 536.308594 C 468.769531 536.308594 466.894531 536.214844 465.019531 536.03125 C 463.148438 535.847656 461.289062 535.570312 459.445312 535.203125 C 457.597656 534.835938 455.777344 534.378906 453.976562 533.832031 C 452.175781 533.285156 450.40625 532.652344 448.667969 531.933594 C 446.929688 531.214844 445.230469 530.410156 443.570312 529.523438 C 441.910156 528.636719 440.300781 527.671875 438.734375 526.625 C 437.171875 525.578125 435.660156 524.460938 434.207031 523.265625 C 432.753906 522.074219 431.359375 520.8125 430.03125 519.480469 C 428.699219 518.148438 427.4375 516.757812 426.242188 515.304688 C 425.050781 513.847656 423.929688 512.339844 422.886719 510.773438 C 421.839844 509.210938 420.875 507.597656 419.988281 505.941406 C 419.101562 504.28125 418.296875 502.582031 417.578125 500.84375 C 416.855469 499.105469 416.222656 497.335938 415.675781 495.535156 C 415.132812 493.734375 414.675781 491.910156 414.308594 490.066406 C 413.941406 488.222656 413.664062 486.363281 413.480469 484.488281 C 413.296875 482.617188 413.203125 480.742188 413.203125 478.859375 C 413.203125 476.976562 413.296875 475.101562 413.480469 473.226562 C 413.664062 471.355469 413.941406 469.496094 414.308594 467.652344 C 414.675781 465.804688 415.132812 463.984375 415.675781 462.183594 C 416.222656 460.382812 416.855469 458.613281 417.578125 456.875 C 418.296875 455.136719 419.101562 453.4375 419.988281 451.777344 C 420.875 450.117188 421.839844 448.507812 422.886719 446.941406 C 423.929688 445.378906 425.050781 443.867188 426.242188 442.414062 C 427.4375 440.960938 428.699219 439.566406 430.03125 438.238281 C 431.359375 436.90625 432.753906 435.644531 434.207031 434.449219 C 435.660156 433.257812 437.171875 432.136719 438.734375 431.09375 C 440.300781 430.046875 441.910156 429.082031 443.570312 428.195312 C 445.230469 427.308594 446.929688 426.503906 448.667969 425.785156 C 450.40625 425.0625 452.175781 424.429688 453.976562 423.882812 C 455.777344 423.339844 457.597656 422.882812 459.445312 422.515625 C 461.289062 422.148438 463.148438 421.871094 465.019531 421.6875 C 466.894531 421.503906 468.769531 421.410156 470.652344 421.410156 C 472.535156 421.410156 474.410156 421.503906 476.28125 421.6875 C 478.15625 421.871094 480.015625 422.148438 481.859375 422.515625 C 483.703125 422.882812 485.527344 423.339844 487.328125 423.882812 C 489.128906 424.429688 490.898438 425.0625 492.636719 425.785156 C 494.375 426.503906 496.074219 427.308594 497.734375 428.195312 C 499.390625 429.082031 501.003906 430.046875 502.566406 431.09375 C 504.132812 432.136719 505.640625 433.257812 507.097656 434.449219 C 508.550781 435.644531 509.945312 436.90625 511.273438 438.238281 C 512.605469 439.566406 513.867188 440.960938 515.058594 442.414062 C 516.253906 443.867188 517.371094 445.378906 518.417969 446.941406 C 519.464844 448.507812 520.429688 450.117188 521.316406 451.777344 C 522.203125 453.4375 523.007812 455.136719 523.726562 456.875 C 524.445312 458.613281 525.078125 460.382812 525.625 462.183594 C 526.171875 463.984375 526.628906 465.804688 526.996094 467.652344 C 527.363281 469.496094 527.640625 471.355469 527.824219 473.226562 C 528.007812 475.101562 528.101562 476.976562 528.101562 478.859375 C 528.101562 480.742188 528.007812 482.617188 527.824219 484.488281 C 527.640625 486.363281 527.363281 488.222656 526.996094 490.066406 C 526.628906 491.910156 526.171875 493.734375 525.625 495.535156 C 525.078125 497.335938 524.445312 499.105469 523.726562 500.84375 C 523.007812 502.582031 522.203125 504.28125 521.316406 505.941406 C 520.429688 507.597656 519.464844 509.210938 518.417969 510.773438 C 517.371094 512.339844 516.253906 513.847656 515.058594 515.304688 C 513.867188 516.757812 512.605469 518.148438 511.273438 519.480469 C 509.945312 520.8125 508.550781 522.074219 507.097656 523.265625 C 505.640625 524.460938 504.132812 525.578125 502.566406 526.625 C 501.003906 527.671875 499.390625 528.636719 497.734375 529.523438 C 496.074219 530.410156 494.375 531.214844 492.636719 531.933594 C 490.898438 532.652344 489.128906 533.285156 487.328125 533.832031 C 485.527344 534.378906 483.703125 534.835938 481.859375 535.203125 C 480.015625 535.570312 478.15625 535.847656 476.28125 536.03125 C 474.410156 536.214844 472.535156 536.308594 470.652344 536.308594 Z M 470.652344 437.824219 C 469.308594 437.824219 467.96875 437.890625 466.628906 438.023438 C 465.292969 438.152344 463.964844 438.351562 462.648438 438.613281 C 461.328125 438.875 460.027344 439.203125 458.742188 439.589844 C 457.453125 439.980469 456.191406 440.433594 454.949219 440.949219 C 453.707031 441.460938 452.492188 442.035156 451.308594 442.667969 C 450.125 443.304688 448.972656 443.992188 447.855469 444.738281 C 446.738281 445.488281 445.660156 446.285156 444.621094 447.140625 C 443.582031 447.992188 442.585938 448.894531 441.636719 449.84375 C 440.6875 450.792969 439.785156 451.789062 438.933594 452.828125 C 438.078125 453.867188 437.28125 454.945312 436.53125 456.0625 C 435.785156 457.179688 435.097656 458.332031 434.464844 459.515625 C 433.828125 460.699219 433.253906 461.914062 432.742188 463.15625 C 432.226562 464.398438 431.773438 465.660156 431.382812 466.945312 C 430.996094 468.234375 430.667969 469.535156 430.40625 470.851562 C 430.144531 472.171875 429.945312 473.5 429.816406 474.835938 C 429.683594 476.175781 429.617188 477.515625 429.617188 478.859375 C 429.617188 480.203125 429.683594 481.542969 429.816406 482.882812 C 429.945312 484.21875 430.144531 485.546875 430.40625 486.863281 C 430.667969 488.183594 430.996094 489.484375 431.382812 490.769531 C 431.773438 492.054688 432.226562 493.320312 432.742188 494.5625 C 433.253906 495.804688 433.828125 497.015625 434.464844 498.203125 C 435.097656 499.386719 435.785156 500.539062 436.53125 501.65625 C 437.28125 502.773438 438.078125 503.851562 438.933594 504.890625 C 439.785156 505.929688 440.6875 506.925781 441.636719 507.875 C 442.585938 508.824219 443.582031 509.726562 444.621094 510.578125 C 445.660156 511.429688 446.738281 512.230469 447.855469 512.976562 C 448.972656 513.722656 450.125 514.414062 451.308594 515.046875 C 452.492188 515.679688 453.707031 516.253906 454.949219 516.769531 C 456.191406 517.285156 457.453125 517.734375 458.742188 518.125 C 460.027344 518.515625 461.328125 518.84375 462.648438 519.105469 C 463.964844 519.367188 465.292969 519.5625 466.628906 519.695312 C 467.96875 519.828125 469.308594 519.894531 470.652344 519.894531 C 471.996094 519.894531 473.335938 519.828125 474.675781 519.695312 C 476.011719 519.5625 477.339844 519.367188 478.65625 519.105469 C 479.976562 518.84375 481.277344 518.515625 482.5625 518.125 C 483.847656 517.734375 485.113281 517.285156 486.355469 516.769531 C 487.597656 516.253906 488.808594 515.679688 489.996094 515.046875 C 491.179688 514.414062 492.332031 513.722656 493.449219 512.976562 C 494.566406 512.230469 495.644531 511.429688 496.683594 510.578125 C 497.722656 509.726562 498.71875 508.824219 499.667969 507.875 C 500.617188 506.925781 501.519531 505.929688 502.371094 504.890625 C 503.222656 503.851562 504.023438 502.773438 504.769531 501.65625 C 505.515625 500.539062 506.207031 499.386719 506.839844 498.203125 C 507.472656 497.015625 508.046875 495.804688 508.5625 494.5625 C 509.078125 493.320312 509.527344 492.054688 509.917969 490.769531 C 510.308594 489.484375 510.636719 488.183594 510.898438 486.863281 C 511.160156 485.546875 511.355469 484.21875 511.488281 482.882812 C 511.621094 481.542969 511.6875 480.203125 511.6875 478.859375 C 511.6875 477.515625 511.621094 476.175781 511.488281 474.835938 C 511.355469 473.5 511.160156 472.171875 510.898438 470.851562 C 510.636719 469.535156 510.308594 468.234375 509.917969 466.945312 C 509.527344 465.660156 509.078125 464.398438 508.5625 463.15625 C 508.046875 461.914062 507.472656 460.699219 506.839844 459.515625 C 506.207031 458.332031 505.515625 457.179688 504.769531 456.0625 C 504.023438 454.945312 503.222656 453.867188 502.371094 452.828125 C 501.519531 451.789062 500.617188 450.792969 499.667969 449.84375 C 498.71875 448.894531 497.722656 447.992188 496.683594 447.140625 C 495.644531 446.285156 494.566406 445.488281 493.449219 444.738281 C 492.332031 443.992188 491.179688 443.304688 489.996094 442.667969 C 488.808594 442.035156 487.597656 441.460938 486.355469 440.949219 C 485.113281 440.433594 483.847656 439.980469 482.5625 439.589844 C 481.277344 439.203125 479.976562 438.875 478.65625 438.613281 C 477.339844 438.351562 476.011719 438.152344 474.675781 438.023438 C 473.335938 437.890625 471.996094 437.824219 470.652344 437.824219 Z M 470.652344 437.824219 " fill-opacity="1" fill-rule="nonzero"/><path fill="#ffffff" d="M 470.652344 507.582031 C 469.84375 507.582031 469.042969 507.542969 468.238281 507.464844 C 467.4375 507.386719 466.640625 507.265625 465.847656 507.109375 C 465.058594 506.953125 464.277344 506.757812 463.503906 506.523438 C 462.734375 506.289062 461.976562 506.015625 461.230469 505.707031 C 460.484375 505.398438 459.757812 505.054688 459.046875 504.675781 C 458.335938 504.296875 457.644531 503.882812 456.972656 503.433594 C 456.304688 502.984375 455.65625 502.503906 455.03125 501.996094 C 454.410156 501.484375 453.8125 500.941406 453.242188 500.371094 C 452.671875 499.800781 452.132812 499.203125 451.621094 498.582031 C 451.109375 497.957031 450.628906 497.3125 450.179688 496.640625 C 449.734375 495.96875 449.320312 495.28125 448.9375 494.566406 C 448.558594 493.855469 448.214844 493.128906 447.90625 492.382812 C 447.597656 491.640625 447.324219 490.878906 447.089844 490.109375 C 446.859375 489.335938 446.660156 488.554688 446.503906 487.765625 C 446.347656 486.972656 446.230469 486.179688 446.148438 485.375 C 446.070312 484.574219 446.03125 483.769531 446.03125 482.960938 C 446.03125 482.421875 446.082031 481.890625 446.1875 481.359375 C 446.292969 480.832031 446.449219 480.320312 446.65625 479.820312 C 446.863281 479.324219 447.113281 478.851562 447.414062 478.402344 C 447.714844 477.953125 448.054688 477.539062 448.433594 477.160156 C 448.816406 476.777344 449.230469 476.4375 449.679688 476.136719 C 450.125 475.839844 450.601562 475.585938 451.097656 475.378906 C 451.59375 475.175781 452.109375 475.019531 452.636719 474.914062 C 453.164062 474.808594 453.699219 474.753906 454.238281 474.753906 C 454.777344 474.753906 455.3125 474.808594 455.839844 474.914062 C 456.367188 475.019531 456.882812 475.175781 457.378906 475.378906 C 457.875 475.585938 458.351562 475.839844 458.796875 476.136719 C 459.246094 476.4375 459.660156 476.777344 460.042969 477.160156 C 460.421875 477.539062 460.761719 477.953125 461.0625 478.402344 C 461.359375 478.851562 461.613281 479.324219 461.820312 479.820312 C 462.027344 480.320312 462.183594 480.832031 462.289062 481.359375 C 462.390625 481.890625 462.445312 482.421875 462.445312 482.960938 C 462.445312 483.5 462.496094 484.035156 462.601562 484.5625 C 462.707031 485.09375 462.863281 485.605469 463.070312 486.101562 C 463.277344 486.601562 463.527344 487.074219 463.828125 487.523438 C 464.128906 487.96875 464.46875 488.382812 464.847656 488.765625 C 465.230469 489.144531 465.644531 489.488281 466.09375 489.785156 C 466.539062 490.085938 467.011719 490.339844 467.511719 490.542969 C 468.007812 490.75 468.523438 490.90625 469.050781 491.011719 C 469.578125 491.117188 470.113281 491.167969 470.652344 491.167969 C 471.191406 491.167969 471.722656 491.117188 472.253906 491.011719 C 472.78125 490.90625 473.292969 490.75 473.792969 490.542969 C 474.289062 490.339844 474.761719 490.085938 475.210938 489.785156 C 475.660156 489.488281 476.074219 489.144531 476.453125 488.765625 C 476.835938 488.382812 477.175781 487.96875 477.476562 487.523438 C 477.773438 487.074219 478.027344 486.601562 478.234375 486.101562 C 478.441406 485.605469 478.597656 485.09375 478.699219 484.5625 C 478.804688 484.035156 478.859375 483.5 478.859375 482.960938 C 478.859375 482.421875 478.910156 481.890625 479.015625 481.359375 C 479.121094 480.832031 479.277344 480.320312 479.484375 479.820312 C 479.691406 479.324219 479.941406 478.851562 480.242188 478.402344 C 480.542969 477.953125 480.882812 477.539062 481.261719 477.160156 C 481.644531 476.777344 482.058594 476.4375 482.507812 476.136719 C 482.953125 475.839844 483.425781 475.585938 483.925781 475.378906 C 484.421875 475.175781 484.9375 475.019531 485.464844 474.914062 C 485.992188 474.808594 486.527344 474.753906 487.066406 474.753906 C 487.605469 474.753906 488.136719 474.808594 488.667969 474.914062 C 489.195312 475.019531 489.707031 475.175781 490.207031 475.378906 C 490.703125 475.585938 491.175781 475.839844 491.625 476.136719 C 492.074219 476.4375 492.488281 476.777344 492.867188 477.160156 C 493.25 477.539062 493.589844 477.953125 493.890625 478.402344 C 494.1875 478.851562 494.441406 479.324219 494.648438 479.820312 C 494.855469 480.320312 495.007812 480.832031 495.113281 481.359375 C 495.21875 481.890625 495.273438 482.421875 495.273438 482.960938 C 495.273438 483.769531 495.234375 484.574219 495.152344 485.375 C 495.074219 486.179688 494.957031 486.972656 494.800781 487.765625 C 494.640625 488.554688 494.445312 489.335938 494.210938 490.109375 C 493.976562 490.878906 493.707031 491.640625 493.398438 492.382812 C 493.089844 493.128906 492.746094 493.855469 492.367188 494.566406 C 491.984375 495.28125 491.570312 495.96875 491.125 496.640625 C 490.675781 497.3125 490.195312 497.957031 489.683594 498.582031 C 489.171875 499.203125 488.632812 499.800781 488.0625 500.371094 C 487.492188 500.941406 486.894531 501.484375 486.269531 501.996094 C 485.648438 502.503906 485 502.984375 484.332031 503.433594 C 483.660156 503.882812 482.96875 504.296875 482.257812 504.675781 C 481.546875 505.054688 480.820312 505.398438 480.074219 505.707031 C 479.328125 506.015625 478.570312 506.289062 477.800781 506.523438 C 477.027344 506.757812 476.246094 506.953125 475.457031 507.109375 C 474.664062 507.265625 473.867188 507.386719 473.066406 507.464844 C 472.261719 507.542969 471.457031 507.582031 470.652344 507.582031 Z M 470.652344 507.582031 " fill-opacity="1" fill-rule="nonzero"/><g clip-path="url(#741837cfdb)"><path fill="#ffffff" d="M 338.441406 511.6875 C 337.28125 511.683594 336.175781 511.445312 335.117188 510.976562 C 334.058594 510.503906 333.140625 509.835938 332.367188 508.976562 L 305.367188 478.859375 L 249.066406 478.859375 C 248.261719 478.859375 247.457031 478.820312 246.652344 478.742188 C 245.851562 478.660156 245.054688 478.542969 244.261719 478.386719 C 243.472656 478.226562 242.691406 478.03125 241.917969 477.796875 C 241.148438 477.566406 240.390625 477.292969 239.644531 476.984375 C 238.898438 476.675781 238.171875 476.332031 237.460938 475.953125 C 236.75 475.570312 236.058594 475.15625 235.386719 474.710938 C 234.71875 474.261719 234.070312 473.78125 233.449219 473.269531 C 232.824219 472.757812 232.226562 472.21875 231.65625 471.648438 C 231.085938 471.078125 230.546875 470.480469 230.035156 469.855469 C 229.523438 469.234375 229.042969 468.585938 228.59375 467.917969 C 228.148438 467.246094 227.734375 466.554688 227.351562 465.84375 C 226.972656 465.132812 226.628906 464.40625 226.320312 463.660156 C 226.011719 462.914062 225.742188 462.15625 225.507812 461.386719 C 225.273438 460.613281 225.078125 459.832031 224.917969 459.042969 C 224.761719 458.25 224.644531 457.453125 224.566406 456.652344 C 224.484375 455.847656 224.445312 455.042969 224.445312 454.238281 L 224.445312 347.550781 C 224.445312 346.742188 224.484375 345.9375 224.566406 345.136719 C 224.644531 344.332031 224.761719 343.535156 224.917969 342.746094 C 225.078125 341.953125 225.273438 341.171875 225.507812 340.402344 C 225.742188 339.628906 226.011719 338.871094 226.320312 338.128906 C 226.628906 337.382812 226.972656 336.652344 227.351562 335.941406 C 227.734375 335.230469 228.148438 334.542969 228.59375 333.871094 C 229.042969 333.199219 229.523438 332.554688 230.035156 331.929688 C 230.546875 331.308594 231.085938 330.710938 231.65625 330.140625 C 232.226562 329.570312 232.824219 329.027344 233.449219 328.515625 C 234.070312 328.003906 234.71875 327.527344 235.386719 327.078125 C 236.058594 326.628906 236.75 326.214844 237.460938 325.835938 C 238.171875 325.457031 238.898438 325.109375 239.644531 324.800781 C 240.390625 324.492188 241.148438 324.222656 241.917969 323.988281 C 242.691406 323.753906 243.472656 323.558594 244.261719 323.402344 C 245.054688 323.246094 245.851562 323.125 246.652344 323.046875 C 247.457031 322.96875 248.261719 322.929688 249.066406 322.929688 L 429.617188 322.929688 C 430.425781 322.929688 431.226562 322.96875 432.03125 323.046875 C 432.832031 323.125 433.628906 323.246094 434.421875 323.402344 C 435.210938 323.558594 435.992188 323.753906 436.765625 323.988281 C 437.535156 324.222656 438.292969 324.492188 439.039062 324.800781 C 439.785156 325.109375 440.511719 325.457031 441.222656 325.835938 C 441.933594 326.214844 442.625 326.628906 443.296875 327.078125 C 443.964844 327.527344 444.613281 328.003906 445.238281 328.515625 C 445.859375 329.027344 446.457031 329.570312 447.027344 330.140625 C 447.597656 330.710938 448.136719 331.308594 448.648438 331.929688 C 449.160156 332.554688 449.640625 333.199219 450.089844 333.871094 C 450.535156 334.542969 450.949219 335.230469 451.332031 335.941406 C 451.710938 336.652344 452.054688 337.382812 452.363281 338.128906 C 452.671875 338.871094 452.945312 339.628906 453.179688 340.402344 C 453.414062 341.171875 453.609375 341.953125 453.765625 342.746094 C 453.921875 343.535156 454.039062 344.332031 454.121094 345.136719 C 454.199219 345.9375 454.238281 346.742188 454.238281 347.550781 L 454.238281 380.375 C 454.238281 380.914062 454.1875 381.449219 454.082031 381.976562 C 453.976562 382.507812 453.820312 383.019531 453.613281 383.515625 C 453.40625 384.015625 453.15625 384.488281 452.855469 384.9375 C 452.554688 385.382812 452.214844 385.796875 451.835938 386.179688 C 451.453125 386.5625 451.039062 386.902344 450.589844 387.199219 C 450.144531 387.5 449.667969 387.753906 449.171875 387.957031 C 448.675781 388.164062 448.160156 388.320312 447.632812 388.425781 C 447.105469 388.53125 446.570312 388.582031 446.03125 388.582031 C 445.492188 388.582031 444.957031 388.53125 444.429688 388.425781 C 443.902344 388.320312 443.386719 388.164062 442.890625 387.957031 C 442.394531 387.753906 441.917969 387.5 441.472656 387.199219 C 441.023438 386.902344 440.609375 386.5625 440.226562 386.179688 C 439.847656 385.796875 439.507812 385.382812 439.207031 384.9375 C 438.910156 384.488281 438.65625 384.015625 438.449219 383.515625 C 438.242188 383.019531 438.085938 382.507812 437.980469 381.976562 C 437.878906 381.449219 437.824219 380.914062 437.824219 380.375 L 437.824219 347.550781 C 437.824219 347.011719 437.773438 346.476562 437.667969 345.949219 C 437.5625 345.417969 437.40625 344.90625 437.199219 344.410156 C 436.992188 343.910156 436.742188 343.4375 436.441406 342.988281 C 436.140625 342.542969 435.800781 342.128906 435.421875 341.746094 C 435.039062 341.363281 434.625 341.023438 434.175781 340.726562 C 433.730469 340.425781 433.257812 340.171875 432.757812 339.96875 C 432.261719 339.761719 431.746094 339.605469 431.21875 339.5 C 430.691406 339.394531 430.15625 339.34375 429.617188 339.34375 L 249.066406 339.34375 C 248.527344 339.34375 247.996094 339.394531 247.464844 339.5 C 246.9375 339.605469 246.425781 339.761719 245.925781 339.96875 C 245.429688 340.171875 244.957031 340.425781 244.507812 340.726562 C 244.058594 341.023438 243.644531 341.363281 243.265625 341.746094 C 242.882812 342.128906 242.542969 342.542969 242.242188 342.988281 C 241.945312 343.4375 241.691406 343.910156 241.484375 344.410156 C 241.277344 344.90625 241.121094 345.417969 241.019531 345.949219 C 240.914062 346.476562 240.859375 347.011719 240.859375 347.550781 L 240.859375 454.238281 C 240.859375 454.777344 240.914062 455.3125 241.019531 455.839844 C 241.121094 456.367188 241.277344 456.882812 241.484375 457.378906 C 241.691406 457.875 241.945312 458.351562 242.242188 458.796875 C 242.542969 459.246094 242.882812 459.660156 243.265625 460.042969 C 243.644531 460.421875 244.058594 460.761719 244.507812 461.0625 C 244.957031 461.363281 245.429688 461.613281 245.925781 461.820312 C 246.425781 462.027344 246.9375 462.183594 247.464844 462.289062 C 247.996094 462.390625 248.527344 462.445312 249.066406 462.445312 L 309.058594 462.445312 C 310.230469 462.4375 311.355469 462.667969 312.425781 463.140625 C 313.5 463.613281 314.429688 464.28125 315.214844 465.152344 L 344.59375 497.980469 C 344.957031 498.382812 345.28125 498.816406 345.558594 499.285156 C 345.835938 499.75 346.0625 500.238281 346.246094 500.75 C 346.425781 501.265625 346.554688 501.789062 346.628906 502.324219 C 346.707031 502.863281 346.730469 503.402344 346.699219 503.945312 C 346.667969 504.488281 346.585938 505.019531 346.449219 505.546875 C 346.3125 506.070312 346.125 506.578125 345.890625 507.066406 C 345.652344 507.554688 345.371094 508.015625 345.039062 508.445312 C 344.710938 508.878906 344.34375 509.273438 343.9375 509.632812 C 343.179688 510.304688 342.328125 510.816406 341.378906 511.167969 C 340.429688 511.523438 339.449219 511.695312 338.441406 511.6875 Z M 338.441406 511.6875 " fill-opacity="1" fill-rule="nonzero"/></g><path fill="#ffffff" d="M 495.273438 273.6875 L 388.582031 273.6875 C 388.042969 273.6875 387.511719 273.636719 386.980469 273.53125 C 386.453125 273.425781 385.941406 273.269531 385.441406 273.0625 C 384.945312 272.855469 384.472656 272.605469 384.023438 272.304688 C 383.574219 272.003906 383.160156 271.664062 382.78125 271.285156 C 382.398438 270.902344 382.058594 270.488281 381.757812 270.039062 C 381.460938 269.59375 381.207031 269.117188 381 268.621094 C 380.796875 268.125 380.640625 267.609375 380.535156 267.082031 C 380.429688 266.554688 380.375 266.019531 380.375 265.480469 C 380.375 264.941406 380.429688 264.40625 380.535156 263.878906 C 380.640625 263.351562 380.796875 262.835938 381 262.339844 C 381.207031 261.84375 381.460938 261.371094 381.757812 260.921875 C 382.058594 260.472656 382.398438 260.058594 382.78125 259.675781 C 383.160156 259.296875 383.574219 258.957031 384.023438 258.65625 C 384.472656 258.359375 384.945312 258.105469 385.441406 257.898438 C 385.941406 257.691406 386.453125 257.535156 386.980469 257.429688 C 387.511719 257.328125 388.042969 257.273438 388.582031 257.273438 L 495.273438 257.273438 C 495.8125 257.273438 496.34375 257.328125 496.875 257.429688 C 497.402344 257.535156 497.914062 257.691406 498.414062 257.898438 C 498.910156 258.105469 499.382812 258.359375 499.832031 258.65625 C 500.28125 258.957031 500.695312 259.296875 501.074219 259.675781 C 501.457031 260.058594 501.796875 260.472656 502.097656 260.921875 C 502.394531 261.371094 502.648438 261.84375 502.855469 262.339844 C 503.0625 262.835938 503.214844 263.351562 503.320312 263.878906 C 503.425781 264.40625 503.480469 264.941406 503.480469 265.480469 C 503.480469 266.019531 503.425781 266.554688 503.320312 267.082031 C 503.214844 267.609375 503.0625 268.125 502.855469 268.621094 C 502.648438 269.117188 502.394531 269.59375 502.097656 270.039062 C 501.796875 270.488281 501.457031 270.902344 501.074219 271.285156 C 500.695312 271.664062 500.28125 272.003906 499.832031 272.304688 C 499.382812 272.605469 498.910156 272.855469 498.414062 273.0625 C 497.914062 273.269531 497.402344 273.425781 496.875 273.53125 C 496.34375 273.636719 495.8125 273.6875 495.273438 273.6875 Z M 495.273438 273.6875 " fill-opacity="1" fill-rule="nonzero"/><path fill="#ffffff" d="M 454.238281 306.515625 L 388.582031 306.515625 C 388.042969 306.515625 387.511719 306.460938 386.980469 306.355469 C 386.453125 306.253906 385.941406 306.097656 385.441406 305.890625 C 384.945312 305.683594 384.472656 305.429688 384.023438 305.132812 C 383.574219 304.832031 383.160156 304.492188 382.78125 304.109375 C 382.398438 303.730469 382.058594 303.316406 381.757812 302.867188 C 381.460938 302.417969 381.207031 301.945312 381 301.449219 C 380.796875 300.949219 380.640625 300.4375 380.535156 299.910156 C 380.429688 299.378906 380.375 298.847656 380.375 298.308594 C 380.375 297.769531 380.429688 297.234375 380.535156 296.707031 C 380.640625 296.179688 380.796875 295.664062 381 295.167969 C 381.207031 294.667969 381.460938 294.195312 381.757812 293.75 C 382.058594 293.300781 382.398438 292.886719 382.78125 292.503906 C 383.160156 292.125 383.574219 291.785156 384.023438 291.484375 C 384.472656 291.183594 384.945312 290.933594 385.441406 290.726562 C 385.941406 290.519531 386.453125 290.363281 386.980469 290.257812 C 387.511719 290.152344 388.042969 290.101562 388.582031 290.101562 L 454.238281 290.101562 C 454.777344 290.101562 455.3125 290.152344 455.839844 290.257812 C 456.367188 290.363281 456.882812 290.519531 457.378906 290.726562 C 457.875 290.933594 458.351562 291.183594 458.796875 291.484375 C 459.246094 291.785156 459.660156 292.125 460.042969 292.503906 C 460.421875 292.886719 460.761719 293.300781 461.0625 293.75 C 461.359375 294.195312 461.613281 294.667969 461.820312 295.167969 C 462.027344 295.664062 462.183594 296.179688 462.289062 296.707031 C 462.390625 297.234375 462.445312 297.769531 462.445312 298.308594 C 462.445312 298.847656 462.390625 299.378906 462.289062 299.910156 C 462.183594 300.4375 462.027344 300.949219 461.820312 301.449219 C 461.613281 301.945312 461.363281 302.417969 461.0625 302.867188 C 460.761719 303.316406 460.421875 303.730469 460.042969 304.109375 C 459.660156 304.492188 459.246094 304.832031 458.796875 305.132812 C 458.351562 305.429688 457.875 305.683594 457.378906 305.890625 C 456.882812 306.097656 456.367188 306.253906 455.839844 306.355469 C 455.3125 306.460938 454.777344 306.515625 454.238281 306.515625 Z M 454.238281 306.515625 " fill-opacity="1" fill-rule="nonzero"/><path fill="#ffffff" d="M 339.34375 459.820312 C 338.25 459.824219 337.203125 459.621094 336.191406 459.210938 C 335.183594 458.796875 334.289062 458.207031 333.515625 457.4375 L 299.046875 423.050781 C 277.378906 401.386719 279.515625 379.554688 290.839844 368.476562 C 302.164062 357.398438 319.644531 355.757812 339.34375 371.675781 C 341.671875 369.550781 344.207031 367.703125 346.945312 366.132812 C 349.683594 364.5625 352.5625 363.308594 355.574219 362.375 C 358.589844 361.4375 361.667969 360.839844 364.8125 360.582031 C 367.960938 360.324219 371.09375 360.410156 374.222656 360.84375 C 376.429688 361.28125 378.546875 361.980469 380.578125 362.941406 C 382.613281 363.90625 384.496094 365.105469 386.230469 366.539062 C 387.960938 367.972656 389.492188 369.59375 390.824219 371.410156 C 392.152344 373.222656 393.238281 375.171875 394.082031 377.257812 C 394.28125 377.757812 394.429688 378.273438 394.527344 378.804688 C 394.628906 379.335938 394.671875 379.871094 394.664062 380.410156 C 394.65625 380.949219 394.597656 381.484375 394.484375 382.011719 C 394.371094 382.539062 394.210938 383.050781 393.996094 383.546875 C 393.78125 384.039062 393.523438 384.511719 393.21875 384.953125 C 392.910156 385.398438 392.566406 385.808594 392.175781 386.183594 C 391.789062 386.5625 391.371094 386.894531 390.917969 387.1875 C 390.464844 387.480469 389.988281 387.726562 389.484375 387.925781 C 388.984375 388.125 388.46875 388.277344 387.9375 388.375 C 387.410156 388.472656 386.875 388.515625 386.332031 388.511719 C 385.792969 388.503906 385.261719 388.441406 384.734375 388.332031 C 384.207031 388.21875 383.695312 388.054688 383.199219 387.839844 C 382.703125 387.628906 382.234375 387.367188 381.789062 387.0625 C 381.34375 386.757812 380.933594 386.410156 380.558594 386.023438 C 380.183594 385.636719 379.847656 385.214844 379.554688 384.761719 C 379.261719 384.308594 379.015625 383.832031 378.816406 383.332031 C 378.476562 382.480469 378.03125 381.6875 377.480469 380.949219 C 376.933594 380.214844 376.296875 379.5625 375.578125 378.996094 C 374.859375 378.425781 374.078125 377.960938 373.234375 377.597656 C 372.394531 377.230469 371.519531 376.984375 370.609375 376.847656 C 368.175781 376.769531 365.761719 376.972656 363.371094 377.453125 C 360.980469 377.9375 358.679688 378.6875 356.464844 379.707031 C 354.25 380.722656 352.179688 381.984375 350.257812 383.484375 C 348.335938 384.980469 346.613281 386.683594 345.085938 388.582031 C 344.707031 388.96875 344.289062 389.3125 343.839844 389.613281 C 343.390625 389.917969 342.917969 390.171875 342.417969 390.378906 C 341.917969 390.589844 341.402344 390.746094 340.871094 390.851562 C 340.339844 390.957031 339.800781 391.011719 339.261719 391.011719 C 338.71875 391.011719 338.183594 390.957031 337.652344 390.851562 C 337.121094 390.746094 336.605469 390.589844 336.105469 390.378906 C 335.605469 390.171875 335.128906 389.917969 334.679688 389.613281 C 334.230469 389.3125 333.816406 388.96875 333.433594 388.582031 C 320.382812 375.535156 307.828125 374.46875 302.164062 380.375 C 296.503906 386.285156 297.570312 398.597656 310.371094 411.644531 L 345.085938 446.03125 C 345.472656 446.414062 345.816406 446.828125 346.117188 447.277344 C 346.417969 447.726562 346.675781 448.203125 346.882812 448.703125 C 347.09375 449.203125 347.25 449.71875 347.355469 450.25 C 347.460938 450.78125 347.515625 451.316406 347.515625 451.859375 C 347.515625 452.398438 347.460938 452.9375 347.355469 453.46875 C 347.25 454 347.09375 454.515625 346.882812 455.015625 C 346.675781 455.515625 346.417969 455.988281 346.117188 456.4375 C 345.816406 456.886719 345.472656 457.304688 345.085938 457.683594 C 344.304688 458.398438 343.414062 458.9375 342.421875 459.308594 C 341.429688 459.675781 340.402344 459.847656 339.34375 459.820312 Z M 339.34375 459.820312 " fill-opacity="1" fill-rule="nonzero"/></svg>